<?xml version="1.0"?>
<svg width="700" height="800" xmlns="http://www.w3.org/2000/svg" xmlns:svg="http://www.w3.org/2000/svg" version="1.1">
 <defs>
  <clipPath id="clip_0">
   <path d="m-276.98,-245.97l1208.47,0l0,1313.36l-1208.47,0l0,-1313.36z" id="svg_1"/>
  </clipPath>
 </defs>
 <g class="layer">
  <title>Layer 1</title>
  <g id="svg_2">
   <g clip-path="url(#clip_0)" id="svg_3">
    <path d="m334.9,159.18l0,90.02c0,3.97 3.4,7.19 7.58,7.19l102.55,0c4.18,0 7.58,3.21 7.58,7.18l0,72.55c0,7.19 9.91,9.92 13.98,3.86l81.95,-121.96c19.22,-28.59 -2.46,-66.02 -38.24,-66.02l-167.82,0c-4.18,0 -7.58,3.21 -7.58,7.18" fill="#d31033" id="svg_4"/>
    <path d="m432.94,373.75l0,-90.02c0,-3.97 -3.4,-7.19 -7.58,-7.19l-102.55,0c-4.18,0 -7.58,-3.21 -7.58,-7.18l0,-72.55c0,-7.19 -9.91,-9.92 -13.98,-3.86l-81.95,121.96c-19.22,28.59 2.46,66.02 38.24,66.02l167.82,0c4.18,0 7.58,-3.21 7.58,-7.18" fill="#047433" id="svg_5"/>
    <path d="m193.05,537.8l-11.99,0c-8.36,0 -14.45,-0.8 -18.26,-2.42c-11.8,-5.42 -17.69,-14.88 -17.69,-28.39c0,-9.38 3.23,-16.77 9.71,-22.17c6.46,-5.76 15.02,-8.65 25.68,-8.65l12.56,0l0,61.64zm124.4,-76.77c-6.47,-4.87 -13.51,-7.85 -21.11,-8.93c-3.62,-0.9 -11.23,-1.35 -22.83,-1.35l-23.97,0l0,25.41l28.54,0c10.46,0 18.65,1.99 24.54,5.95c5.71,3.78 9.31,9.09 10.84,15.95c1.14,3.78 1.73,10.72 1.73,20.82l0,18.91l-95.59,0l0,-87.05l-22.83,0c-10.85,0 -19.03,0.1 -24.54,0.28c-13.51,0.35 -25.58,5.4 -36.23,15.12c-11.99,11.01 -17.98,24.34 -17.98,40.02c0,20.37 8.18,36.13 24.54,47.31c7.42,4.69 13.61,7.48 18.55,8.37c5.71,0.91 17.41,1.35 35.09,1.35l55.91,0c0.3,-0.83 0.67,-1.64 1.09,-2.42l0.03,-0.05c1.22,-2.35 2.86,-4.48 4.86,-6.33l0.07,-0.07c2.03,-1.81 4.36,-3.24 6.89,-4.28l0.04,-0.01l0.03,-0.02c2.71,-1.06 5.61,-1.59 8.63,-1.59c3.09,0 6.04,0.56 8.77,1.68c2.72,1.06 5.14,2.57 7.21,4.5l0.03,0.01l0.02,0.02c2.04,1.93 3.67,4.23 4.87,6.83l0.02,0.04l0.02,0.04l0.33,0.76l0.02,0.05l0.02,0.03c0.11,0.27 0.21,0.55 0.31,0.81l46.66,0l0,-55.41c0,-20.37 -8.18,-35.96 -24.54,-46.76" fill="#047433" id="svg_6"/>
    <path d="m431.85,536.18l-16.83,0c-20.74,-1.63 -31.1,-11.17 -31.1,-28.65l0,-1.63c0,-3.06 0.67,-6.65 1.99,-10.81c5.32,-12.61 17.3,-18.93 35.96,-18.93l9.98,0l0,60.02zm124.12,-75.15c-6.47,-4.87 -13.51,-7.85 -21.11,-8.93c-3.62,-0.9 -11.23,-1.35 -22.83,-1.35l-23.97,0l0,25.41l28.53,0c10.46,0 18.65,1.99 24.54,5.95c5.71,3.78 9.31,9.09 10.84,15.95c1.14,3.78 1.72,10.72 1.72,20.81l0,18.92l-95.02,0l0,-87.59l-36.8,0c-1.32,0 -2.72,0.04 -4.17,0.12c-0.06,0 -0.12,0 -0.18,0.01c-0.38,0.02 -0.77,0.03 -1.15,0.06c-3.63,0.19 -7.1,0.56 -10.41,1.09c-1.31,0.18 -2.66,0.39 -4.05,0.61c-0.53,0.16 -1.05,0.32 -1.56,0.48c-10.41,2.42 -19.11,6.66 -26.12,12.76c-12.17,11 -18.25,24.61 -18.25,40.83c0,20.37 8.07,36.04 24.25,47.04c6.65,4.51 13.79,7.48 21.39,8.92c3.8,0.72 11.51,1.07 23.11,1.07l7.13,0l0,1.76c0,10.08 -0.57,17.04 -1.72,20.81c-1.52,6.85 -5.13,12.17 -10.84,15.95c-5.9,3.96 -14.08,5.95 -24.54,5.95l-28.52,0l0,25.4l23.96,0c7.27,0 12.98,-0.17 17.12,-0.53c2.46,-0.21 4.36,-0.48 5.71,-0.81c7.61,-1.09 14.64,-4.06 21.11,-8.93c6.63,-4.38 11.92,-9.54 15.85,-15.5c5.79,-8.73 8.68,-19.16 8.68,-31.27l0,-12.85l121.84,0l0,-55.41c0,-20.37 -8.18,-35.96 -24.54,-46.76" fill="#d31033" id="svg_7"/>
    <path d="m340.03,636.46c0,1.48 1.27,2.67 2.82,2.67c1.56,0 2.83,-1.19 2.83,-2.67c0,-1.48 -1.27,-2.67 -2.83,-2.67c-1.55,0 -2.82,1.19 -2.82,2.67" fill="#2d2d2d" id="svg_8"/>
    <path d="m333.62,636.46c0,1.48 1.27,2.67 2.82,2.67c1.56,0 2.83,-1.19 2.83,-2.67c0,-1.48 -1.27,-2.67 -2.83,-2.67c-1.55,0 -2.82,1.19 -2.82,2.67" fill="#2d2d2d" id="svg_9"/>
    <path d="m264.02,601.42c0,1.48 1.27,2.67 2.82,2.67c1.56,0 2.83,-1.19 2.83,-2.67c0,-1.48 -1.27,-2.67 -2.83,-2.67c-1.55,0 -2.82,1.19 -2.82,2.67" fill="#2d2d2d" id="svg_10"/>
    <path d="m274.76,637.03c0,1.48 1.27,2.67 2.82,2.67c1.56,0 2.83,-1.19 2.83,-2.67c0,-1.48 -1.27,-2.67 -2.83,-2.67c-1.55,0 -2.82,1.19 -2.82,2.67" fill="#2d2d2d" id="svg_11"/>
    <path d="m257.61,601.42c0,1.48 1.27,2.67 2.82,2.67c1.56,0 2.83,-1.19 2.83,-2.67c0,-1.48 -1.27,-2.67 -2.83,-2.67c-1.55,0 -2.82,1.19 -2.82,2.67" fill="#2d2d2d" id="svg_12"/>
    <path d="m580.51,607.32l0,25.77l-152.36,0c4.02,-1.64 7.86,-3.84 11.51,-6.57c8.01,-5.32 14.21,-11.73 18.6,-19.2l122.25,0z" fill="#2d2d2d" id="svg_13"/>
    <path d="m175.36,626.46c-0.77,-0.13 -1.58,-0.49 -2.43,-1.09c-2.07,-1.44 -3.1,-3.47 -3.1,-6.07c0,-2.3 0.88,-4.15 2.63,-5.56c1.44,-1.15 4.01,-1.73 7.7,-1.73l5.6,0l0,-6.01l-6.41,0c-5.04,0 -8.88,1.2 -11.54,3.58c-2.92,2.78 -4.38,6.14 -4.38,10.11c0,2.39 0.89,4.7 2.69,6.91l-9.38,0l-0.41,0l-3.03,0c1.52,-2.6 2.29,-5.01 2.29,-7.23c0,-3.83 -1.49,-7.09 -4.46,-9.79c-2.74,-2.38 -6.59,-3.58 -11.54,-3.58l-6.47,0l0,6.01l7.76,0c2.38,0 4.36,0.68 5.94,2.05c1.53,1.32 2.29,3.07 2.29,5.24c0,2.56 -1.03,4.59 -3.1,6.07c-1.26,0.81 -3.15,1.22 -5.67,1.22l-11.41,0l0,6.01l27.4,0l0.41,0l32,0l0,-6.01l-8.51,0c-2.25,0 -3.87,-0.04 -4.86,-0.13" fill="#2d2d2d" id="svg_14"/>
    <path d="m273.71,626.59l-6.75,0l-0.41,0l-0.34,0l0,-20.59l-6.34,0l0,20.59l-14.45,0l-0.47,0l-0.34,0l0,-20.59l-6.35,0l0,20.59l-6.95,0l0,-20.59l-6.28,0l0,20.59l-7.22,0l0,-20.59l-6.35,0l0,20.59l-11.74,0l-0.4,0l-0.34,0l0,-33.39l-6.28,0l0,39.4l6.62,0l0.4,0l45.23,0l0.47,0l21.12,0l0.41,0l13.02,0l0,-26.6l-6.27,0l0,20.59z" fill="#2d2d2d" id="svg_15"/>
    <path d="m337.84,626.59l-14.51,0l-0.41,0l-3.03,0c1.52,-2.6 2.29,-5.01 2.29,-7.22c0,-3.84 -1.49,-7.1 -4.46,-9.79c-2.75,-2.39 -6.59,-3.58 -11.54,-3.58l-6.48,0l0,6.01l7.76,0c2.39,0 4.37,0.67 5.94,2.04c1.53,1.32 2.29,3.07 2.29,5.24c0,2.56 -1.03,4.59 -3.1,6.07c-1.26,0.81 -3.15,1.22 -5.67,1.22l-11.41,0l0,6.01l27.4,0l0.41,0l20.86,0l0,-26.6l-6.35,0l0,20.59z" fill="#2d2d2d" id="svg_16"/>
    <path d="m348.23,632.6l6.28,0l0,-39.4l-6.28,0l0,39.4z" fill="#2d2d2d" id="svg_17"/>
    <path d="m291.95,572.87c-0.18,1.55 -0.62,3.03 -1.2,4.43c-0.99,2.23 -2.32,4.15 -4.03,5.84c-1.73,1.65 -3.73,2.95 -6.04,3.91c-2.16,0.87 -4.46,1.32 -6.88,1.32c-0.17,0 -0.35,-0.01 -0.52,-0.01c-2.61,0 -5.08,-0.51 -7.36,-1.51c-2.32,-1.03 -4.31,-2.37 -5.94,-4.13c-1.67,-1.71 -2.91,-3.75 -3.78,-6.11c-0.76,-2.03 -1.09,-4.2 -0.94,-6.52l0.07,-1.11c0.05,-0.39 0.1,-0.78 0.17,-1.16c0.14,-0.79 0.33,-1.56 0.58,-2.31c0.26,-0.79 0.56,-1.57 0.92,-2.3c0.08,-0.17 0.16,-0.34 0.26,-0.5l0.04,-0.07c1.01,-1.96 2.36,-3.68 3.94,-5.15c1.63,-1.44 3.48,-2.61 5.59,-3.48c2.1,-0.82 4.38,-1.26 6.88,-1.26c2.47,0 4.82,0.44 6.99,1.33c2.21,0.87 4.14,2.07 5.8,3.61c1.63,1.55 2.94,3.37 3.92,5.49l0.01,0.03l0.32,0.73c0.2,0.51 0.38,1.04 0.54,1.57c0.23,0.74 0.4,1.51 0.53,2.31c0.14,0.75 0.22,1.54 0.27,2.34c0.03,0.93 -0.04,1.85 -0.15,2.71" fill="#2d2d2d" id="svg_18"/>
    <path d="m225.3,427.37c-0.16,1.39 -0.56,2.72 -1.08,3.98c-0.88,2.01 -2.08,3.74 -3.62,5.25c-1.56,1.48 -3.36,2.66 -5.44,3.51c-1.94,0.79 -4,1.19 -6.17,1.19c-0.16,0 -0.32,-0.01 -0.47,-0.01c-2.35,0 -4.57,-0.46 -6.62,-1.36c-2.09,-0.93 -3.87,-2.13 -5.34,-3.7c-1.5,-1.54 -2.61,-3.37 -3.39,-5.49c-0.68,-1.83 -0.98,-3.76 -0.85,-5.86l0.06,-0.99c0.05,-0.35 0.09,-0.7 0.16,-1.05c0.13,-0.71 0.3,-1.4 0.52,-2.08c0.23,-0.71 0.5,-1.41 0.83,-2.07c0.07,-0.16 0.15,-0.3 0.22,-0.45l0.04,-0.07c0.91,-1.76 2.12,-3.3 3.55,-4.63c1.46,-1.3 3.12,-2.34 5.02,-3.11c1.88,-0.74 3.94,-1.14 6.18,-1.14c2.22,0 4.34,0.4 6.29,1.2c1.98,0.77 3.72,1.85 5.2,3.24c1.47,1.39 2.64,3.03 3.52,4.94l0.01,0.03l0.28,0.66c0.18,0.45 0.35,0.93 0.49,1.41c0.19,0.67 0.36,1.36 0.47,2.08c0.12,0.67 0.19,1.38 0.24,2.1c0.03,0.83 -0.04,1.66 -0.13,2.43" fill="#047433" id="svg_19"/>
    <path d="m186.23,427.37c-0.16,1.39 -0.56,2.72 -1.08,3.98c-0.88,2.01 -2.08,3.74 -3.62,5.25c-1.56,1.48 -3.36,2.66 -5.44,3.51c-1.94,0.79 -4,1.19 -6.17,1.19c-0.16,0 -0.32,-0.01 -0.47,-0.01c-2.35,0 -4.57,-0.46 -6.62,-1.36c-2.09,-0.93 -3.87,-2.13 -5.34,-3.7c-1.5,-1.54 -2.61,-3.37 -3.39,-5.49c-0.68,-1.83 -0.98,-3.76 -0.85,-5.86l0.06,-0.99c0.05,-0.35 0.09,-0.7 0.16,-1.05c0.13,-0.71 0.3,-1.4 0.52,-2.08c0.23,-0.71 0.5,-1.41 0.83,-2.07c0.07,-0.16 0.15,-0.3 0.22,-0.45l0.04,-0.07c0.91,-1.76 2.12,-3.3 3.55,-4.63c1.46,-1.3 3.12,-2.34 5.02,-3.11c1.88,-0.74 3.94,-1.14 6.18,-1.14c2.22,0 4.34,0.4 6.29,1.2c1.98,0.77 3.72,1.85 5.2,3.24c1.47,1.39 2.64,3.03 3.52,4.94l0.01,0.03l0.28,0.66c0.18,0.45 0.35,0.93 0.49,1.41c0.19,0.67 0.36,1.36 0.47,2.08c0.12,0.67 0.19,1.38 0.24,2.1c0.03,0.83 -0.04,1.66 -0.13,2.43" fill="#047433" id="svg_20"/>
   </g>
  </g>
 </g>
</svg>