<svg xmlns="http://www.w3.org/2000/svg" viewBox="0 0 961.14 242.77">
  <g data-name="Layer 2">
    <path d="M201.46 461.77q-1.76-16.14-6.58-27.13H111v.06a13.57 13.57 0 0 0 0 27v.06Z" transform="translate(-47.27 -359.34)" style="fill:#3782c4"/>
    <path d="M202.08 469H93.74v.07a13.56 13.56 0 0 0 0 27v.06H201.9q.56-6.9.55-14.48 0-6.65-.37-12.65Z" transform="translate(-47.27 -359.34)" style="fill:#ee3f60"/>
    <path d="M150.94 537.76h-12.19v.06a13.58 13.58 0 0 0-8.33 23.11 13.68 13.68 0 0 0 3.58 2.57 13.11 13.11 0 0 0 4.71 1.32v.07h12.19v-2h.27a65.55 65.55 0 0 0 14.21-3.21 40.56 40.56 0 0 0 12.74-7.33 55.54 55.54 0 0 0 12.17-14.57Z" transform="translate(-47.27 -359.34)" style="fill:#f38020"/>
    <path d="M165.51 406.32a98.74 98.74 0 0 0-14.57-3.22v-2.83h-12.19v.06a13.56 13.56 0 0 0 0 27v.07H191c-7-10.99-15.42-18-25.49-21.08Z" transform="translate(-47.27 -359.34)" style="fill:#8ac440"/>
    <path d="M112.35 503.38H111v.08a13.56 13.56 0 0 0 0 27v.08h83a99.58 99.58 0 0 0 7.12-27.14Z" transform="translate(-47.27 -359.34)" style="fill:#00b199"/>
  </g>
  <path d="M166.91 25.71a76.32 76.32 0 0 0-31.89-17.14c-11.74-3-25.76-4.58-42.17-4.58H29.79c-10.45 0-18 2.29-22.64 7s-7 12.19-7 22.64v8.62h80.3c2.14 0 4.23 0 6.28.1 1.6.05 3.18.12 4.72.21q6.42.39 12.19 1.24a98.74 98.74 0 0 1 14.57 3.22c10.1 3.04 18.52 10.05 25.52 21.04.28.42.54.85.81 1.28a52.77 52.77 0 0 1 3.06 6q4.83 11 6.58 27.13c.25 2.33.46 4.75.62 7.24q.36 6 .37 12.65 0 7.57-.55 14.48-.3 3.74-.76 7.24a99.58 99.58 0 0 1-7.13 27.1 68.2 68.2 0 0 1-3.69 7.24 55.54 55.54 0 0 1-12.17 14.57 40.56 40.56 0 0 1-12.74 7.33 65.55 65.55 0 0 1-14.21 3.21h-.27c-3.24.31-7.28.48-12.19.57H0v4.56c0 7.7.64 13.94 2 18.8a18.46 18.46 0 0 0 8.73 11.27c4.5 2.66 11.09 4 19.89 4h63.11a190.31 190.31 0 0 0 29.6-2.11 93.19 93.19 0 0 0 24.57-7.33 82.3 82.3 0 0 0 21-13.84 99.35 99.35 0 0 0 20.07-25.48 113.81 113.81 0 0 0 11.55-32 191.53 191.53 0 0 0 3.76-39.23q-.06-65.13-37.37-97.03Zm746.37 192.05c-3.91 2.72-7.57 5.34-11.3 7.85-16.76 11.25-35.06 17.33-55.44 16.56-10.61-.4-20.74-2.53-29.89-8.1-16.29-9.91-24.62-24.4-23.83-43.53.77-18.88 10.91-31.66 27.45-39.88 8.48-4.23 17.81-5.49 26.92-7.57 20.17-4.61 40.31-9.36 60.48-14 2.17-.5 2.89-1.46 2.5-3.59-.69-3.85-1.08-7.77-1.9-11.59-2.32-10.81-9-16.93-20.08-18.26a80.94 80.94 0 0 0-28.15 1.09c-8.85 2-15.36 7.45-20.56 14.61a91.34 91.34 0 0 0-6.68 10c-3.82 7-10 8-17 7-11.08-1.56-16.92-10.15-14.84-21.64 2-11.28 8.31-19.89 17.43-26.51a76.53 76.53 0 0 1 32.39-13.31 158.3 158.3 0 0 1 63.68 1.63 63.42 63.42 0 0 1 10.85 3.79c15.2 6.7 22.72 19.14 25.91 34.84 2.39 11.8 2.19 23.72 2.14 35.65-.06 12.77-.1 25.53-.24 38.29-.12 10.57 2.45 20.63 5.34 30.68a101.55 101.55 0 0 1 2.59 13.68 8.58 8.58 0 0 1-.88 4.34c-4.13 9.47-19.14 17.81-30.89 7.9-6-5-10.35-11.3-14.59-17.72Zm-3-63.08c-3.51 1-6.65 2.15-9.88 2.91q-20.85 4.89-41.73 9.61a36.63 36.63 0 0 0-15.13 7.46 17.28 17.28 0 0 0-6.13 9.77c-2.88 12.24 4.29 24.31 17 27.79 12 3.31 23.52 1 34.43-4.62s18-14.46 19.86-26.86c.89-6.08 1.16-12.27 1.6-18.41.13-2.49-.01-4.98-.01-7.67Zm-555.44 63.1c-4 2.79-7.83 5.5-11.71 8.09-16.65 11.12-34.83 17-55 16.31-13.48-.49-25.83-4.09-36.5-12.63-24.43-19.55-25.11-62.16 10.21-78.92 8.49-4 17.67-5.44 26.69-7.5 20.26-4.63 40.48-9.39 60.74-14 2.15-.49 2.88-1.42 2.48-3.59-.68-3.68-.9-7.46-1.77-11.1-2.88-12-8.32-17-20.46-18.75a80.57 80.57 0 0 0-25.46.55c-10 1.73-17.4 7.32-23.15 15.37-2.91 4.08-5.72 8.23-8.49 12.4a9.58 9.58 0 0 1-7 4.27c-4.64.69-9.18.59-13.5-1.44-8.21-3.86-11.38-11.45-9-21.78s8.16-18.19 16.49-24.35a76.52 76.52 0 0 1 33-13.75 158 158 0 0 1 63.69 1.64 62.87 62.87 0 0 1 10.85 3.79c14.81 6.52 22.77 18.49 25.54 33.9a163.13 163.13 0 0 1 2.43 25.37c.32 14.51.13 29-.25 43.55a108.22 108.22 0 0 0 5.21 36 110.31 110.31 0 0 1 2.85 11.55 12.13 12.13 0 0 1-1.82 8.87c-5.32 8.82-20 16.32-31.44 4.71-4.84-4.88-8.72-10.71-13-16.12-.59-.72-1.03-1.56-1.63-2.44Zm-2.95-63.12c-3.08.94-5.66 1.89-8.32 2.51q-21.81 5.14-43.66 10.15a36.06 36.06 0 0 0-14.88 7.34 17.39 17.39 0 0 0-5.83 8.84 22.89 22.89 0 0 0 16.59 28.56c16.88 4.23 31.88-.36 44.75-11.89a28.26 28.26 0 0 0 7.78-12.09c3.71-10.74 3.58-21.91 3.57-33.42ZM490.45 69c5.77 0 11.13-.3 16.44.1a37.9 37.9 0 0 1 10.94 2.38c8.79 3.47 11.62 15.94 5.45 23.16-3.06 3.58-7.5 4.37-11.78 4.81-5.8.59-11.67.54-17.51.75h-3.54v3.15q0 55.2-.05 110.4a54.24 54.24 0 0 1-1 11.17c-2.34 11-10.48 17.36-21.44 17.25-10.35-.1-18.47-7-20.55-17.76a57.88 57.88 0 0 1-.92-10.69q-.09-54.95 0-109.9v-3.62h-3.34c-5.25-.21-10.58.06-15.73-.77-9.26-1.51-14.24-8.49-13.18-17.57.67-5.75 4-9.66 9.39-11.17a73 73 0 0 1 13.07-1.88c3.13-.28 6.31-.06 9.79-.06v-3.87c0-10 0-20 1.77-29.93 3.14-18 13.4-29 31.39-32.56 15.49-3 31.06-3.4 46.51.15a30.68 30.68 0 0 1 9.75 4.33c5.92 3.89 7.81 11.17 5.15 17.73-2.6 6.4-8.32 9.56-15.53 8.68-5.31-.64-10.62-1.26-15.94-1.67a25.19 25.19 0 0 0-6.23.47c-5.28.92-9.3 3.71-10.47 9.1a143.4 143.4 0 0 0-2.34 16.28c-.38 3.62-.1 7.29-.1 11.54Zm66.15 31.21a38.76 38.76 0 0 1-5.42-.05c-3.77-.56-7.73-.77-11.19-2.17-5.78-2.34-8.59-7.21-8.63-13.47s2.89-11.11 8.68-13.4c3.7-1.46 7.91-1.68 11.92-2.33a32.09 32.09 0 0 1 4.64 0v-3.07c.16-12.84.15-25.69.53-38.53.32-10.65 6.38-18.37 15.7-20.78 12.74-3.3 25.57 5.06 26.79 18.11.88 9.45.71 19 .91 28.49.11 5.15 0 10.3 0 15.77 4.86 0 9.43-.09 14 0a49.5 49.5 0 0 1 9 .76c9.2 1.93 14.2 10.31 11.74 19.36-1 3.78-3.3 6.78-7 7.95a80 80 0 0 1-13.59 3.07 75.71 75.71 0 0 1-11.77.23c-1.93 0-2.37.63-2.36 2.45.06 12.93 0 25.87 0 38.8.06 16.77.1 33.54.36 50.3a31.34 31.34 0 0 0 1.74 9.27 9.93 9.93 0 0 0 9.83 7.22 131 131 0 0 0 13.66-1.15c2.24-.23 4.45-.75 6.69-1 7.33-.85 12.91 2 15.71 8a15.82 15.82 0 0 1-3.81 18.36 30.26 30.26 0 0 1-13.5 6.83 98.79 98.79 0 0 1-44.23 1.2c-17.08-3.48-26.19-13.7-28.64-31.92a197.79 197.79 0 0 1-1.67-24.69c-.2-26.78-.07-53.56-.07-80.34Zm151.78-8.88c2.49-3.55 4.68-7 7.18-10.15a86.4 86.4 0 0 1 7.22-8c5.31-5.23 12-7.53 19.23-8.1a55.07 55.07 0 0 1 34.62 8.63c6.69 4.24 10.35 10.17 9.69 18.44-.81 10.17-12.25 18.56-21.5 15.51a137.48 137.48 0 0 0-18.39-4.74c-14-2.53-24 3.1-29.5 16.13-4.23 10.06-6 20.72-6.27 31.49-.64 21.75-.7 43.52-1.09 65.29a47 47 0 0 1-1 9.17c-2.3 10.75-10.41 17.18-21.28 17.14-10.56 0-18.53-6.67-20.72-17.47a42.67 42.67 0 0 1-.83-8.44c0-41.21-.12-82.43.09-123.64a46.57 46.57 0 0 1 2.68-15.39c4.33-11.94 20.35-16.43 30.76-9 4.59 3.26 6.45 8.18 7.62 13.38.72 3.08.98 6.26 1.49 9.75Z" style="fill:#1d2d3e" data-name="Layer 3"/>
</svg>
